{"title":"Sanctum.[2011].DvdRip.XviD-KnÃƒÂ£","uid":6534908,"size":1567813632,"categoryP":"video","categoryS":"movies","magnet":"?xt=urn:btih:5c0de779745995fc150285666e8dbc3464964843&amp;dn=Sanctum.%5B2011%5D.DvdRip.XviD-Kn%C3%83%C2%A3&amp;tr=udp%3A%2F%2Ftracker.openbittorrent.com%3A80&amp;tr=udp%3A%2F%2Fopen.demonii.com%3A1337&amp;tr=udp%3A%2F%2Ftracker.coppersurfer.tk%3A6969&amp;tr=udp%3A%2F%2Fexodus.desync.com%3A6969","seeders":0,"leechers":1,"uploader":"Jon.Pson","files":1,"time":1310477806,"description":"An underwater cave diving team experiences a life-threatening crisis during an expedition to the unexplored and least accessible cave system in the world.\n\n\nGeneral\nComplete name                    : Z:\\Movies\\Sanctum.[2011].DvdRip.XviD-KnÃƒÂ£\\Sanctum.[2011].DvdRip.XviD-KnÃƒÂ£.avi\nFormat                           : AVI\nFormat/Info                      : Audio Video Interleave\nFile size                        : 1.46 GiB\nDuration                         : 1h 48mn\nOverall bit rate                 : 1 923 Kbps\nWriting application              : VirtualDubMod 1.5.4.1 (build 2178/release)\nWriting library                  : VirtualDubMod build 2178/release\n\nVideo\nID                               : 0\nFormat                           : MPEG-4 Visual\nFormat profile                   : Advanced Simple@L5\nFormat settings, BVOP            : 1\nFormat settings, QPel            : No\nFormat settings, GMC             : No warppoints\nFormat settings, Matrix          : Default (H.263)\nMuxing mode                      : Packed bitstream\nCodec ID                         : XVID\nCodec ID/Hint                    : XviD\nDuration                         : 1h 48mn\nBit rate                         : 1 468 Kbps\nWidth                            : 720 pixels\nHeight                           : 384 pixels\nDisplay aspect ratio             : 1.875\nFrame rate                       : 23.976 fps\nColor space                      : YUV\nChroma subsampling               : 4:2:0\nBit depth                        : 8 bits\nScan type                        : Progressive\nCompression mode                 : Lossy\nBits/(Pixel*Frame)               : 0.221\nStream size                      : 1.11 GiB (76%)\nWriting library                  : XviD 1.2.1 (UTC 2008-12-04)\n\nAudio\nID                               : 1\nFormat                           : AC-3\nFormat/Info                      : Audio Coding 3\nMode extension                   : CM (complete main)\nCodec ID                         : 2000\nDuration                         : 1h 48mn\nBit rate mode                    : Constant\nBit rate                         : 448 Kbps\nChannel(s)                       : 6 channels\nChannel positions                : Front: L C R, Side: L R, LFE\nSampling rate                    : 48.0 KHz\nBit depth                        : 16 bits\nCompression mode                 : Lossy\nStream size                      : 348 MiB (23%)\nAlignment                        : Split accross interleaves\nInterleave, duration             : 83 ms (2.00 video frames)\nInterleave, preload duration     : 500 ms\nLanguage                         : English\n\n","torrent":{"xt":"urn:btih:5c0de779745995fc150285666e8dbc3464964843","amp;dn":"Sanctum.%5B2011%5D.DvdRip.XviD-Kn%C3%83%C2%A3","amp;tr":["udp%3A%2F%2Ftracker.openbittorrent.com%3A80","udp%3A%2F%2Fopen.demonii.com%3A1337","udp%3A%2F%2Ftracker.coppersurfer.tk%3A6969","udp%3A%2F%2Fexodus.desync.com%3A6969"],"infoHash":"5c0de779745995fc150285666e8dbc3464964843","infoHashBuffer":{"type":"Buffer","data":[92,13,231,121,116,89,149,252,21,2,133,102,110,141,188,52,100,150,72,67]},"announce":[],"urlList":[]}}